<?xml version="1.0" standalone="no"?>
<!DOCTYPE svg PUBLIC "-//W3C//DTD SVG 20010904//EN"
 "http://www.w3.org/TR/2001/REC-SVG-20010904/DTD/svg10.dtd">
<svg version="1.0" xmlns="http://www.w3.org/2000/svg"
 width="200.000000pt" height="200.000000pt" viewBox="0 0 200.000000 200.000000"
 preserveAspectRatio="xMidYMid meet">
<metadata>
Created by potrace 1.14, written by Peter Selinger 2001-2017
</metadata>
<g transform="translate(0.000000,200.000000) scale(0.100000,-0.100000)"
fill="#000000" stroke="none">
<path d="M141 1447 c-59 -30 -45 -101 26 -135 20 -9 38 -22 40 -29 6 -17 -38
-26 -69 -14 -21 8 -28 7 -32 -5 -10 -27 -7 -32 30 -44 64 -22 124 9 124 64 0
41 -7 49 -58 75 -53 27 -50 46 7 45 36 -1 41 2 41 22 0 35 -60 46 -109 21z"/>
<path d="M723 1454 c-9 -4 -13 -38 -13 -120 l0 -114 25 0 c23 0 25 4 25 46 0
52 11 51 40 -7 17 -32 26 -39 50 -39 31 0 36 -6 21 -28 -6 -10 -28 -13 -80
-10 -39 1 -71 1 -71 -2 0 -3 23 -20 50 -39 73 -50 73 -49 49 -120 -12 -34 -19
-65 -16 -68 3 -3 31 13 63 36 l57 40 58 -41 c33 -22 61 -39 64 -36 3 3 -4 31
-15 63 -11 32 -20 63 -20 69 0 6 25 29 55 50 30 22 55 42 55 45 0 3 -33 6 -72
6 l-73 0 -26 75 -26 74 -20 -53 -19 -52 -28 41 -27 41 21 26 c11 14 20 36 20
49 0 29 -33 64 -59 64 -10 0 -31 2 -47 5 -16 2 -35 2 -41 -1z m87 -59 c16 -19
-3 -45 -31 -45 -14 0 -19 7 -19 30 0 23 5 30 19 30 10 0 24 -7 31 -15z"/>
<path d="M290 1430 c0 -16 7 -20 30 -20 l30 0 0 -95 c0 -94 0 -95 25 -95 24 0
24 2 27 93 l3 92 33 3 c24 2 32 8 32 23 0 17 -8 19 -90 19 -83 0 -90 -1 -90
-20z"/>
<path d="M523 1418 c-6 -18 -24 -70 -41 -115 l-31 -83 30 0 c22 0 30 5 35 25
5 22 12 25 50 25 38 0 46 -4 56 -25 8 -18 19 -25 39 -25 l28 0 -26 68 c-14 37
-33 88 -41 115 -15 45 -18 47 -52 47 -33 0 -38 -4 -47 -32z m62 -70 c6 -25 4
-28 -18 -28 -24 0 -25 1 -14 35 11 38 22 36 32 -7z"/>
<path d="M768 924 c-71 -38 -79 -154 -14 -206 23 -19 120 -25 130 -9 14 22 -7
41 -44 41 -40 0 -69 20 -71 48 -5 65 21 96 73 89 31 -4 37 -2 42 16 3 12 0 25
-7 29 -20 13 -80 8 -109 -8z"/>
<path d="M964 922 c-64 -41 -72 -143 -14 -194 25 -23 40 -28 81 -28 44 0 55 4
80 31 25 26 29 39 29 85 0 45 -5 59 -28 85 -36 40 -102 50 -148 21z m99 -45
c10 -6 20 -28 23 -47 8 -46 -20 -82 -61 -82 -34 0 -55 25 -55 67 0 61 50 94
93 62z"/>
<path d="M1180 820 l0 -120 25 0 c23 0 25 4 25 45 l0 45 40 0 c36 0 40 3 40
25 0 23 -4 25 -40 25 -36 0 -40 3 -40 25 0 23 4 25 45 25 41 0 45 2 45 25 0
24 -2 25 -70 25 l-70 0 0 -120z"/>
<path d="M1360 820 l0 -120 25 0 c23 0 25 4 25 45 l0 45 40 0 c36 0 40 3 40
25 0 23 -4 25 -40 25 -36 0 -40 3 -40 25 0 23 4 25 45 25 41 0 45 2 45 25 0
24 -2 25 -70 25 l-70 0 0 -120z"/>
<path d="M1540 820 l0 -120 70 0 c68 0 70 1 70 25 0 23 -4 25 -45 25 -41 0
-45 2 -45 25 0 23 4 25 41 25 36 0 40 2 37 23 -2 18 -10 23 -40 25 -30 3 -38
7 -38 23 0 16 7 19 45 19 41 0 45 2 45 25 0 24 -2 25 -70 25 l-70 0 0 -120z"/>
<path d="M1727 934 c-4 -4 -7 -58 -7 -121 l0 -113 75 0 c73 0 75 1 75 25 0 23
-4 25 -45 25 -41 0 -45 2 -45 25 0 22 4 25 35 25 31 0 35 3 35 25 0 22 -4 25
-35 25 -28 0 -35 4 -35 20 0 17 7 20 46 20 41 0 45 2 42 23 -3 20 -9 22 -68
25 -36 2 -69 0 -73 -4z"/>
</g>
</svg>
